<svg width="54" height="1799" viewBox="0 0 54 1799" fill="none" xmlns="http://www.w3.org/2000/svg">
<g opacity="0.25">
<path d="M30.8576 524.103L30.8576 540.526L53.9094 540.526L53.9094 524.103L30.8576 524.103Z" fill="white"/>
<path d="M23.4177 502.366L23.4177 518.789L53.9094 518.789L53.9094 502.366L23.4177 502.366Z" fill="white"/>
<path d="M22.8078 480.146L22.8078 497.052L53.9093 497.052L53.9093 480.146L22.8078 480.146Z" fill="white"/>
<path d="M19.5147 458.892L19.5147 475.315L53.9094 475.315L53.9094 458.892L19.5147 458.892Z" fill="white"/>
<path d="M-3.10844e-05 436.672L-3.05176e-05 453.095L53.9093 453.095L53.9093 436.672L-3.10844e-05 436.672Z" fill="white"/>
<path d="M19.5147 414.935L19.5147 431.358L53.9094 431.358L53.9094 414.935L19.5147 414.935Z" fill="white"/>
<path d="M30.8576 371.461L30.8576 387.884L53.9094 387.884L53.9094 371.461L30.8576 371.461Z" fill="white"/>
<path d="M30.8576 392.715L30.8576 409.621L53.9094 409.621L53.9094 392.715L30.8576 392.715Z" fill="white"/>
<path d="M23.4177 349.724L23.4177 366.148L53.9094 366.148L53.9094 349.724L23.4177 349.724Z" fill="white"/>
<path d="M19.5147 327.504L19.5147 343.927L53.9094 343.927L53.9094 327.504L19.5147 327.504Z" fill="white"/>
<path d="M-3.10844e-05 873.686L-3.05176e-05 890.11L53.9093 890.11L53.9093 873.686L-3.10844e-05 873.686Z" fill="white"/>
<path d="M19.5147 851.949L19.5147 868.373L53.9094 868.373L53.9094 851.949L19.5147 851.949Z" fill="white"/>
<path d="M30.8576 808.475L30.8576 824.899L53.9094 824.899L53.9094 808.475L30.8576 808.475Z" fill="white"/>
<path d="M30.8576 829.729L30.8576 846.636L53.9094 846.636L53.9094 829.729L30.8576 829.729Z" fill="white"/>
<path d="M23.4177 786.738L23.4177 803.162L53.9094 803.162L53.9094 786.738L23.4177 786.738Z" fill="white"/>
<path d="M19.5147 764.518L19.5147 780.942L53.9094 780.942L53.9094 764.518L19.5147 764.518Z" fill="white"/>
<path d="M23.4177 917.448L23.4177 933.872L53.9094 933.872L53.9094 917.448L23.4177 917.448Z" fill="white"/>
<path d="M19.5147 895.228L19.5147 911.652L53.9094 911.652L53.9094 895.228L19.5147 895.228Z" fill="white"/>
<path d="M30.8576 742.602L30.8576 759.026L53.9094 759.026L53.9094 742.602L30.8576 742.602Z" fill="white"/>
<path d="M23.4177 720.865L23.4177 737.289L53.9094 737.289L53.9094 720.865L23.4177 720.865Z" fill="white"/>
<path d="M22.8078 698.645L22.8078 715.552L53.9093 715.552L53.9093 698.645L22.8078 698.645Z" fill="white"/>
<path d="M19.5147 677.391L19.5147 693.815L53.9093 693.815L53.9093 677.391L19.5147 677.391Z" fill="white"/>
<path d="M-3.10844e-05 655.171L-3.05176e-05 671.595L53.9093 671.595L53.9093 655.171L-3.10844e-05 655.171Z" fill="white"/>
<path d="M19.5147 633.434L19.5147 649.858L53.9093 649.858L53.9093 633.434L19.5147 633.434Z" fill="white"/>
<path d="M30.8576 589.96L30.8576 606.384L53.9094 606.384L53.9094 589.96L30.8576 589.96Z" fill="white"/>
<path d="M30.8576 611.214L30.8576 628.121L53.9094 628.121L53.9094 611.214L30.8576 611.214Z" fill="white"/>
<path d="M23.4176 568.223L23.4176 584.647L53.9093 584.647L53.9093 568.223L23.4176 568.223Z" fill="white"/>
<path d="M19.5147 546.003L19.5147 562.427L53.9093 562.427L53.9093 546.003L19.5147 546.003Z" fill="white"/>
<path d="M30.8576 305.767L30.8576 322.674L53.9094 322.674L53.9094 305.767L30.8576 305.767Z" fill="white"/>
<path d="M23.4176 284.03L23.4176 300.453L53.9093 300.453L53.9093 284.03L23.4176 284.03Z" fill="white"/>
<path d="M39.5173 262.293L39.5173 278.717L53.9094 278.717L53.9094 262.293L39.5173 262.293Z" fill="white"/>
<path d="M30.8576 240.073L30.8576 256.497L53.9094 256.497L53.9094 240.073L30.8576 240.073Z" fill="white"/>
<path d="M23.4176 218.336L23.4176 234.759L53.9093 234.759L53.9093 218.336L23.4176 218.336Z" fill="white"/>
<path d="M22.8078 196.116L22.8078 213.023L53.9094 213.023L53.9094 196.116L22.8078 196.116Z" fill="white"/>
<path d="M19.5147 174.862L19.5147 191.285L53.9093 191.285L53.9093 174.862L19.5147 174.862Z" fill="white"/>
<path d="M11.4266 152.159L11.4266 168.582L53.9039 168.582L53.9039 152.159L11.4266 152.159Z" fill="white"/>
<path d="M19.5147 130.905L19.5147 147.328L53.9093 147.328L53.9093 130.905L19.5147 130.905Z" fill="white"/>
<path d="M30.8576 87.4311L30.8576 103.855L53.9093 103.855L53.9093 87.4311L30.8576 87.4311Z" fill="white"/>
<path d="M30.8576 108.685L30.8576 125.591L53.9094 125.591L53.9094 108.685L30.8576 108.685Z" fill="white"/>
<path d="M23.4176 65.6939L23.4176 82.1174L53.9093 82.1174L53.9093 65.6939L23.4176 65.6939Z" fill="white"/>
<path d="M19.5147 43.4738L19.5147 59.8973L53.9093 59.8973L53.9093 43.4738L19.5147 43.4738Z" fill="white"/>
<path d="M30.8576 21.7369L30.8576 38.6434L53.9094 38.6434L53.9094 21.7369L30.8576 21.7369Z" fill="white"/>
<path d="M23.4176 0.000326157L23.4176 16.4238L53.9093 16.4238L53.9093 0.000323625L23.4176 0.000326157Z" fill="white"/>
<path d="M30.8577 1463.56L30.8577 1479.98L53.9094 1479.98L53.9094 1463.56L30.8577 1463.56Z" fill="white"/>
<path d="M19.1842 1440.61L19.1842 1456.44L54 1456.44L54 1440.61L19.1842 1440.61Z" fill="white"/>
<path d="M23.4474 1417.15L23.4474 1433.58L53.9391 1433.58L53.9391 1417.15L23.4474 1417.15Z" fill="white"/>
<path d="M19.1842 1396.05L19.1842 1412.47L53.5789 1412.47L53.5789 1396.05L19.1842 1396.05Z" fill="white"/>
<path d="M6.04684e-05 1374.94L6.10352e-05 1391.36L53.9094 1391.36L53.9094 1374.94L6.04684e-05 1374.94Z" fill="white"/>
<path d="M19.1842 1353.83L19.1842 1370.25L53.5789 1370.25L53.5789 1353.83L19.1842 1353.83Z" fill="white"/>
<path d="M30.5526 1309.86L30.5526 1326.28L53.6044 1326.28L53.6044 1309.86L30.5526 1309.86Z" fill="white"/>
<path d="M30.5526 1332.24L30.5526 1349.15L53.6044 1349.15L53.6044 1332.24L30.5526 1332.24Z" fill="white"/>
<path d="M23.4474 1288.75L23.4474 1305.17L53.9391 1305.17L53.9391 1288.75L23.4474 1288.75Z" fill="white"/>
<path d="M19.1842 1266.96L19.1842 1283.38L53.5789 1283.38L53.5789 1266.96L19.1842 1266.96Z" fill="white"/>
<path d="M19.5147 1791.4L19.5147 1807.83L53.9094 1807.83L53.9094 1791.4L19.5147 1791.4Z" fill="white"/>
<path d="M30.8577 1747.93L30.8577 1764.35L53.9094 1764.35L53.9094 1747.93L30.8577 1747.93Z" fill="white"/>
<path d="M30.8577 1769.18L30.8577 1786.09L53.9094 1786.09L53.9094 1769.18L30.8577 1769.18Z" fill="white"/>
<path d="M23.4177 1726.19L23.4177 1742.61L53.9094 1742.61L53.9094 1726.19L23.4177 1726.19Z" fill="white"/>
<path d="M19.5147 1703.97L19.5147 1720.39L53.9094 1720.39L53.9094 1703.97L19.5147 1703.97Z" fill="white"/>
<path d="M30.8577 1682.06L30.8577 1698.48L53.9094 1698.48L53.9094 1682.06L30.8577 1682.06Z" fill="white"/>
<path d="M23.4177 1660.32L23.4177 1676.74L53.9094 1676.74L53.9094 1660.32L23.4177 1660.32Z" fill="white"/>
<path d="M22.8078 1638.1L22.8078 1655L53.9094 1655L53.9094 1638.1L22.8078 1638.1Z" fill="white"/>
<path d="M19.5147 1616.84L19.5147 1633.27L53.9094 1633.27L53.9094 1616.84L19.5147 1616.84Z" fill="white"/>
<path d="M6.04684e-05 1594.62L6.10352e-05 1611.05L53.9094 1611.05L53.9094 1594.62L6.04684e-05 1594.62Z" fill="white"/>
<path d="M19.5147 1572.89L19.5147 1589.31L53.9094 1589.31L53.9094 1572.89L19.5147 1572.89Z" fill="white"/>
<path d="M30.8577 1529.41L30.8577 1545.84L53.9094 1545.84L53.9094 1529.41L30.8577 1529.41Z" fill="white"/>
<path d="M30.8577 1550.67L30.8577 1567.57L53.9094 1567.57L53.9094 1550.67L30.8577 1550.67Z" fill="white"/>
<path d="M23.4177 1507.68L23.4177 1524.1L53.9094 1524.1L53.9094 1507.68L23.4177 1507.68Z" fill="white"/>
<path d="M19.5147 1485.46L19.5147 1501.88L53.9094 1501.88L53.9094 1485.46L19.5147 1485.46Z" fill="white"/>
<path d="M30.8577 1245.22L30.8577 1262.13L53.9094 1262.13L53.9094 1245.22L30.8577 1245.22Z" fill="white"/>
<path d="M23.4177 1223.48L23.4177 1239.91L53.9094 1239.91L53.9094 1223.48L23.4177 1223.48Z" fill="white"/>
<path d="M39.5173 1201.75L39.5173 1218.17L53.9094 1218.17L53.9094 1201.75L39.5173 1201.75Z" fill="white"/>
<path d="M30.8577 1179.53L30.8577 1195.95L53.9094 1195.95L53.9094 1179.53L30.8577 1179.53Z" fill="white"/>
<path d="M23.4177 1157.79L23.4177 1174.21L53.9094 1174.21L53.9094 1157.79L23.4177 1157.79Z" fill="white"/>
<path d="M22.8079 1135.57L22.8079 1152.48L53.9094 1152.48L53.9094 1135.57L22.8079 1135.57Z" fill="white"/>
<path d="M19.5147 1114.31L19.5147 1130.74L53.9094 1130.74L53.9094 1114.31L19.5147 1114.31Z" fill="white"/>
<path d="M11.4267 1091.61L11.4267 1108.04L53.9039 1108.04L53.9039 1091.61L11.4267 1091.61Z" fill="white"/>
<path d="M19.5147 1070.36L19.5147 1086.78L53.9094 1086.78L53.9094 1070.36L19.5147 1070.36Z" fill="white"/>
<path d="M30.8576 1026.88L30.8576 1043.31L53.9094 1043.31L53.9094 1026.88L30.8576 1026.88Z" fill="white"/>
<path d="M30.8577 1048.14L30.8577 1065.04L53.9094 1065.04L53.9094 1048.14L30.8577 1048.14Z" fill="white"/>
<path d="M23.4177 1005.15L23.4177 1021.57L53.9094 1021.57L53.9094 1005.15L23.4177 1005.15Z" fill="white"/>
<path d="M19.5147 982.927L19.5147 999.35L53.9094 999.35L53.9094 982.927L19.5147 982.927Z" fill="white"/>
<path d="M30.8577 961.19L30.8577 978.096L53.9094 978.096L53.9094 961.19L30.8577 961.19Z" fill="white"/>
<path d="M23.4177 939.453L23.4177 955.876L53.9094 955.876L53.9094 939.453L23.4177 939.453Z" fill="white"/>
</g>
</svg>
