<svg width="63" height="60" viewBox="0 0 63 60" fill="none" xmlns="http://www.w3.org/2000/svg">
<path d="M16.3527 44.0481C16.5982 44.1311 16.8251 44.2624 17.0205 44.4345C17.216 44.6065 17.376 44.816 17.4916 45.0509C17.6072 45.2857 17.676 45.5414 17.6941 45.8032C17.7122 46.0651 17.6793 46.328 17.5971 46.5769L15.6281 52.5694C15.554 52.8273 15.4293 53.0674 15.2615 53.2753C15.0937 53.4833 14.8863 53.6547 14.6517 53.7794C14.4171 53.9041 14.1601 53.9795 13.8961 54.0011C13.6321 54.0227 13.3665 53.99 13.1153 53.905C12.864 53.8201 12.6322 53.6846 12.4338 53.5066C12.2353 53.3286 12.0743 53.1119 11.9604 52.8693C11.8465 52.6267 11.7819 52.3634 11.7707 52.0949C11.7594 51.8264 11.8017 51.5585 11.8949 51.307L13.8639 45.3145C14.0285 44.8118 14.3831 44.396 14.8498 44.1585C15.3165 43.921 15.8572 43.8813 16.3527 44.0481ZM28.1667 44.0481C28.4122 44.1311 28.6391 44.2624 28.8345 44.4345C29.0299 44.6065 29.19 44.816 29.3056 45.0509C29.4212 45.2857 29.49 45.5414 29.5081 45.8032C29.5262 46.0651 29.4932 46.328 29.4111 46.5769L25.4731 58.5618C25.399 58.8198 25.2743 59.0599 25.1065 59.2678C24.9387 59.4757 24.7313 59.6471 24.4967 59.7718C24.2621 59.8966 24.0051 59.972 23.7411 59.9935C23.4771 60.0151 23.2115 59.9825 22.9602 59.8975C22.709 59.8125 22.4772 59.677 22.2787 59.499C22.0803 59.3211 21.9193 59.1043 21.8054 58.8618C21.6914 58.6192 21.6269 58.3558 21.6157 58.0873C21.6044 57.8189 21.6467 57.5509 21.7399 57.2994L25.6779 45.3145C25.8424 44.8118 26.1971 44.396 26.6638 44.1585C27.1305 43.921 27.6711 43.8813 28.1667 44.0481ZM39.9807 44.0481C40.2262 44.1311 40.4531 44.2624 40.6485 44.4345C40.8439 44.6065 41.004 44.816 41.1196 45.0509C41.2351 45.2857 41.304 45.5414 41.3221 45.8032C41.3402 46.0651 41.3072 46.328 41.2251 46.5769L39.2561 52.5694C39.182 52.8273 39.0573 53.0674 38.8895 53.2753C38.7217 53.4833 38.5143 53.6547 38.2797 53.7794C38.0451 53.9041 37.7881 53.9795 37.5241 54.0011C37.2601 54.0227 36.9945 53.99 36.7432 53.905C36.492 53.8201 36.2602 53.6846 36.0617 53.5066C35.8633 53.3286 35.7023 53.1119 35.5884 52.8693C35.4744 52.6267 35.4099 52.3634 35.3987 52.0949C35.3874 51.8264 35.4297 51.5585 35.5229 51.307L37.4919 45.3145C37.6564 44.8118 38.0111 44.396 38.4778 44.1585C38.9445 43.921 39.4851 43.8813 39.9807 44.0481ZM51.7947 44.0481C52.0402 44.1311 52.2671 44.2624 52.4625 44.4345C52.6579 44.6065 52.818 44.816 52.9336 45.0509C53.0491 45.2857 53.1179 45.5414 53.1361 45.8032C53.1542 46.0651 53.1212 46.328 53.0391 46.5769L49.1011 58.5618C49.0269 58.8198 48.9022 59.0599 48.7345 59.2678C48.5667 59.4757 48.3593 59.6471 48.1247 59.7718C47.8901 59.8966 47.6331 59.972 47.3691 59.9935C47.1051 60.0151 46.8395 59.9825 46.5882 59.8975C46.3369 59.8125 46.1052 59.677 45.9067 59.499C45.7083 59.3211 45.5473 59.1043 45.4334 58.8618C45.3194 58.6192 45.2549 58.3558 45.2436 58.0873C45.2324 57.8189 45.2747 57.5509 45.3679 57.2994L49.3059 45.3145C49.4704 44.8118 49.825 44.396 50.2918 44.1585C50.7585 43.921 51.2991 43.8813 51.7947 44.0481ZM52.7674 16.0913C51.9496 11.9092 49.8345 8.10223 46.7312 5.22693C43.628 2.35162 39.6994 0.558836 35.5199 0.110692C31.3404 -0.337452 27.1292 0.582552 23.502 2.73619C19.8748 4.88982 17.0219 8.16413 15.3604 12.0804C13.497 11.8626 11.6095 12.033 9.81337 12.581C8.01721 13.129 6.3502 14.0431 4.91442 15.2675C3.47863 16.4918 2.30427 18.0005 1.46325 19.7013C0.62223 21.4021 0.132239 23.2591 0.0232779 25.1586C-0.0856832 27.0582 0.188679 28.9603 0.829567 30.7485C1.47045 32.5368 2.46438 34.1735 3.75049 35.5585C5.03661 36.9435 6.58784 38.0477 8.30922 38.8033C10.0306 39.559 11.8859 39.9503 13.7615 39.9533H51.1725C54.1697 39.9567 57.0562 38.8044 59.2473 36.7296C61.4384 34.6548 62.7702 31.8128 62.9729 28.7791C63.1757 25.7455 62.2343 22.7471 60.3393 20.3913C58.4444 18.0354 55.7377 16.4983 52.7674 16.0913Z" fill="#17E1BC"/>
</svg>
