<svg width="84" height="80" viewBox="0 0 84 80" fill="none" xmlns="http://www.w3.org/2000/svg">
<path d="M21.8036 58.7308C22.1309 58.8415 22.4335 59.0166 22.6941 59.246C22.9546 59.4754 23.168 59.7547 23.3221 60.0678C23.4762 60.3809 23.568 60.7218 23.5921 61.071C23.6163 61.4201 23.5723 61.7706 23.4629 62.1026L20.8375 70.0925C20.7386 70.4364 20.5724 70.7566 20.3487 71.0338C20.125 71.311 19.8484 71.5396 19.5356 71.7059C19.2228 71.8721 18.8802 71.9727 18.5282 72.0015C18.1761 72.0302 17.822 71.9867 17.487 71.8734C17.152 71.7601 16.8429 71.5794 16.5783 71.3421C16.3138 71.1048 16.0991 70.8158 15.9472 70.4924C15.7953 70.169 15.7092 69.8178 15.6942 69.4599C15.6792 69.1019 15.7356 68.7446 15.8599 68.4093L18.4852 60.4193C18.7046 59.749 19.1774 59.1946 19.7998 58.8779C20.4221 58.5613 21.1429 58.5084 21.8036 58.7308ZM37.5556 58.7308C37.8829 58.8415 38.1855 59.0166 38.446 59.246C38.7066 59.4754 38.92 59.7547 39.0741 60.0678C39.2282 60.3809 39.32 60.7218 39.3441 61.071C39.3682 61.4201 39.3243 61.7706 39.2148 62.1026L33.9642 78.0824C33.8653 78.4263 33.699 78.7465 33.4753 79.0237C33.2516 79.3009 32.9751 79.5295 32.6623 79.6958C32.3495 79.8621 32.0068 79.9626 31.6548 79.9914C31.3028 80.0202 30.9487 79.9766 30.6137 79.8633C30.2786 79.75 29.9696 79.5693 29.705 79.332C29.4404 79.0948 29.2257 78.8058 29.0738 78.4823C28.9219 78.1589 28.8359 77.8077 28.8209 77.4498C28.8059 77.0919 28.8622 76.7345 28.9865 76.3992L34.2372 60.4193C34.4566 59.749 34.9294 59.1946 35.5517 58.8779C36.174 58.5613 36.8949 58.5084 37.5556 58.7308ZM53.3076 58.7308C53.6349 58.8415 53.9375 59.0166 54.198 59.246C54.4586 59.4754 54.672 59.7547 54.8261 60.0678C54.9802 60.3809 55.0719 60.7218 55.0961 61.071C55.1202 61.4201 55.0763 61.7706 54.9668 62.1026L52.3415 70.0925C52.2426 70.4364 52.0763 70.7566 51.8526 71.0338C51.6289 71.311 51.3524 71.5396 51.0396 71.7059C50.7268 71.8721 50.3841 71.9727 50.0321 72.0015C49.6801 72.0302 49.326 71.9867 48.991 71.8734C48.6559 71.7601 48.3469 71.5794 48.0823 71.3421C47.8177 71.1048 47.6031 70.8158 47.4511 70.4924C47.2992 70.169 47.2132 69.8178 47.1982 69.4599C47.1832 69.1019 47.2396 68.7446 47.3639 68.4093L49.9892 60.4193C50.2086 59.749 50.6814 59.1946 51.3037 58.8779C51.926 58.5613 52.6468 58.5084 53.3076 58.7308ZM69.0596 58.7308C69.3869 58.8415 69.6895 59.0166 69.95 59.246C70.2106 59.4754 70.424 59.7547 70.5781 60.0678C70.7322 60.3809 70.8239 60.7218 70.8481 61.071C70.8722 61.4201 70.8283 61.7706 70.7188 62.1026L65.4681 78.0824C65.3693 78.4263 65.203 78.7465 64.9793 79.0237C64.7556 79.3009 64.4791 79.5295 64.1663 79.6958C63.8534 79.8621 63.5108 79.9626 63.1588 79.9914C62.8068 80.0202 62.4526 79.9766 62.1176 79.8633C61.7826 79.75 61.4735 79.5693 61.209 79.332C60.9444 79.0948 60.7297 78.8058 60.5778 78.4823C60.4259 78.1589 60.3399 77.8077 60.3249 77.4498C60.3099 77.0919 60.3662 76.7345 60.4905 76.3992L65.7412 60.4193C65.9606 59.749 66.4334 59.1946 67.0557 58.8779C67.678 58.5613 68.3988 58.5084 69.0596 58.7308ZM70.3565 21.4551C69.2661 15.879 66.4459 10.803 62.3083 6.96924C58.1706 3.1355 52.9325 0.745115 47.3599 0.14759C41.7872 -0.449936 36.1723 0.776736 31.336 3.64825C26.4998 6.51977 22.6959 10.8855 20.4805 16.1072C17.9961 15.8168 15.4794 16.0439 13.0845 16.7746C10.6896 17.5053 8.46694 18.7242 6.55256 20.3566C4.63817 21.9891 3.07237 24.0007 1.951 26.2684C0.829641 28.5361 0.176319 31.0121 0.0310372 33.5448C-0.114244 36.0776 0.251572 38.6137 1.10609 40.9981C1.96061 43.3824 3.28584 45.5647 5.00066 47.4114C6.71547 49.2581 8.78378 50.7302 11.079 51.7378C13.3741 52.7453 15.8479 53.2671 18.3487 53.271H68.23C72.2263 53.2756 76.075 51.7392 78.9964 48.9728C81.9178 46.2065 83.6935 42.417 83.9639 38.3722C84.2342 34.3273 82.979 30.3294 80.4524 27.1883C77.9259 24.0472 74.3169 21.9978 70.3565 21.4551Z" fill="#340043"/>
</svg>
