<svg width="66" height="76" viewBox="0 0 66 76" fill="none" xmlns="http://www.w3.org/2000/svg">
<path d="M33.0112 76C32.3856 76 31.7857 75.7498 31.3434 75.3044C30.901 74.859 30.6525 74.2549 30.6525 73.625V67.4832L27.6051 70.5565C27.1623 71.0018 26.5618 71.2518 25.9359 71.2513C25.31 71.2509 24.7099 71.0001 24.2676 70.5541C23.8254 70.1082 23.5772 69.5036 23.5776 68.8733C23.578 68.2431 23.8271 67.6388 24.27 67.1935L30.6525 60.7668V42.1135L14.6136 51.4378L12.2739 60.2253C12.1112 60.8337 11.7152 61.3522 11.1729 61.6667C10.6306 61.9811 9.98643 62.0658 9.38214 61.902C8.77786 61.7382 8.26293 61.3395 7.95064 60.7934C7.63836 60.2473 7.55429 59.5987 7.71693 58.9902L8.83493 54.8007L3.55154 57.8692C3.01009 58.1792 2.36885 58.261 1.76777 58.0967C1.16668 57.9323 0.654544 57.5353 0.343114 56.9921C0.0316849 56.449 -0.0537517 55.8039 0.105449 55.1976C0.264649 54.5912 0.655561 54.0729 1.19288 53.7558L6.47628 50.6872L2.30617 49.5615C2.00695 49.4804 1.72653 49.3408 1.48092 49.1506C1.2353 48.9603 1.02929 48.7233 0.874665 48.4529C0.720036 48.1825 0.61981 47.8841 0.579709 47.5747C0.539609 47.2653 0.56042 46.951 0.640953 46.6497C0.721486 46.3485 0.860165 46.0661 1.04907 45.8188C1.23798 45.5715 1.47341 45.364 1.74193 45.2083C2.01045 45.0526 2.3068 44.9517 2.61406 44.9113C2.92131 44.871 3.23346 44.8919 3.53267 44.973L12.2503 47.3243L28.2939 38L12.255 28.6758L3.52795 31.027C2.9276 31.1777 2.29249 31.0848 1.75952 30.7683C1.22656 30.4519 0.838417 29.9372 0.678765 29.3353C0.519113 28.7334 0.600735 28.0924 0.906037 27.5506C1.21134 27.0087 1.71587 26.6093 2.31088 26.4385L6.47628 25.3127L1.19288 22.2443C0.922469 22.0894 0.685141 21.8823 0.494557 21.6348C0.303974 21.3872 0.1639 21.1042 0.082399 20.8019C0.000898465 20.4996 -0.0204187 20.1841 0.0196752 19.8735C0.0597692 19.5629 0.160482 19.2633 0.316016 18.9921C0.471549 18.7208 0.678831 18.4833 0.925927 18.293C1.17302 18.1027 1.45505 17.9636 1.75578 17.8835C2.05651 17.8035 2.36999 17.7841 2.67819 17.8265C2.98638 17.8689 3.28319 17.9723 3.55154 18.1307L8.83493 21.1992L7.71693 17.005C7.6311 16.7018 7.60606 16.3845 7.64328 16.0715C7.68049 15.7585 7.77922 15.4561 7.9337 15.1819C8.08818 14.9077 8.29532 14.6673 8.54305 14.4745C8.79077 14.2818 9.07413 14.1406 9.37659 14.0593C9.67905 13.9779 9.99457 13.958 10.3048 14.0008C10.6149 14.0435 10.9136 14.1479 11.1832 14.308C11.4529 14.4681 11.6882 14.6807 11.8755 14.9333C12.0627 15.186 12.1982 15.4736 12.2739 15.7795L14.6089 24.5623L30.6525 33.8865V15.2332L24.27 8.8065C24.0507 8.58599 23.8767 8.32415 23.7579 8.03593C23.6391 7.74771 23.5778 7.43874 23.5776 7.12668C23.5774 6.81462 23.6382 6.50557 23.7566 6.21717C23.875 5.92878 24.0487 5.66669 24.2676 5.44588C24.4866 5.22506 24.7467 5.04983 25.0329 4.93021C25.3192 4.81058 25.626 4.7489 25.9359 4.74868C26.2458 4.74846 26.5527 4.80971 26.8392 4.92892C27.1256 5.04814 27.3858 5.22299 27.6051 5.4435L30.6525 8.51675V2.375C30.6525 1.74511 30.901 1.14102 31.3434 0.695621C31.7857 0.250223 32.3856 0 33.0112 0C33.6367 0 34.2367 0.250223 34.679 0.695621C35.1213 1.14102 35.3699 1.74511 35.3699 2.375V8.51675L38.422 5.4435C38.8648 4.99817 39.4653 4.74823 40.0912 4.74868C40.7171 4.74912 41.3172 4.99991 41.7595 5.44588C42.2017 5.89184 42.4499 6.49644 42.4495 7.12668C42.4491 7.75692 42.2 8.36117 41.7571 8.8065L35.3699 15.2332V33.8865L51.4087 24.5623L53.7485 15.7748C53.9112 15.1663 54.3072 14.6478 54.8495 14.3333C55.3918 14.0189 56.0359 13.9342 56.6402 14.098C57.2445 14.2618 57.7594 14.6605 58.0717 15.2066C58.384 15.7527 58.4681 16.4013 58.3055 17.0098L57.1922 21.1992L62.4756 18.1307C63.017 17.8208 63.6582 17.739 64.2593 17.9033C64.8604 18.0677 65.3726 18.4647 65.684 19.0079C65.9954 19.551 66.0808 20.1961 65.9216 20.8024C65.7624 21.4088 65.3715 21.9271 64.8342 22.2443L59.5508 25.3127L63.7162 26.4385C64.3205 26.6023 64.8354 27.001 65.1477 27.5471C65.46 28.0932 65.5441 28.7418 65.3814 29.3503C65.2188 29.9587 64.8227 30.4772 64.2804 30.7917C63.7381 31.1061 63.094 31.1908 62.4897 31.027L53.7721 28.6758L37.7285 38L53.7674 47.3243L62.4897 44.973C63.094 44.8099 63.7379 44.8951 64.2798 45.21C64.8216 45.5249 65.217 46.0437 65.3791 46.6521C65.5411 47.2606 65.4564 47.909 65.1437 48.4546C64.831 49.0002 64.3158 49.3984 63.7115 49.5615L59.5461 50.6872L64.8295 53.7558C65.3668 54.0729 65.7577 54.5912 65.9169 55.1976C66.0761 55.8039 65.9907 56.449 65.6793 56.9921C65.3678 57.5353 64.8557 57.9323 64.2546 58.0967C63.6535 58.261 63.0123 58.1792 62.4708 57.8692L57.1874 54.8007L58.3007 58.995C58.3866 59.2982 58.4116 59.6155 58.3744 59.9285C58.3372 60.2415 58.2384 60.5439 58.084 60.8181C57.9295 61.0923 57.7223 61.3327 57.4746 61.5255C57.2269 61.7182 56.9435 61.8594 56.6411 61.9407C56.3386 62.0221 56.0231 62.042 55.7129 61.9993C55.4027 61.9565 55.1041 61.8521 54.8344 61.692C54.5648 61.5319 54.3294 61.3193 54.1422 61.0667C53.9549 60.814 53.8195 60.5264 53.7438 60.2205L51.4087 51.4378L35.3699 42.1135V60.7668L41.7524 67.1935C42.1953 67.6388 42.4443 68.2431 42.4448 68.8733C42.4452 69.5036 42.197 70.1082 41.7547 70.5541C41.3125 71.0001 40.7124 71.2509 40.0865 71.2513C39.4606 71.2518 38.8601 71.0018 38.4172 70.5565L35.3651 67.4832V73.625C35.3651 74.2549 35.1166 74.859 34.6743 75.3044C34.232 75.7498 33.6367 76 33.0112 76Z" fill="#340043"/>
</svg>
