<svg width="40" height="46" viewBox="0 0 40 46" fill="none" xmlns="http://www.w3.org/2000/svg">
<path d="M20.0068 46C19.6277 46 19.2641 45.8486 18.996 45.579C18.7279 45.3094 18.5773 44.9437 18.5773 44.5625V40.8451L16.7304 42.7053C16.462 42.9748 16.0981 43.1261 15.7187 43.1258C15.3394 43.1255 14.9757 42.9737 14.7077 42.7038C14.4396 42.4339 14.2892 42.0679 14.2895 41.6865C14.2897 41.305 14.4407 40.9393 14.7091 40.6697L18.5773 36.7799V25.4898L8.85676 31.1334L7.4387 36.4521C7.34013 36.8204 7.10011 37.1342 6.77144 37.3246C6.44277 37.5149 6.05238 37.5661 5.68615 37.467C5.31991 37.3679 5.00784 37.1265 4.81857 36.796C4.62931 36.4655 4.57836 36.0729 4.67693 35.7046L5.35451 33.1689L2.15245 35.0261C1.8243 35.2137 1.43567 35.2632 1.07137 35.1638C0.70708 35.0643 0.396693 34.824 0.207948 34.4952C0.019203 34.1665 -0.0325768 33.776 0.0639082 33.4091C0.160393 33.0421 0.39731 32.7284 0.722957 32.5364L3.92502 30.6791L1.39768 29.9978C1.21634 29.9487 1.04638 29.8641 0.897525 29.749C0.748666 29.6339 0.623815 29.4904 0.5301 29.3267C0.436385 29.1631 0.375642 28.9825 0.351339 28.7952C0.327036 28.608 0.339648 28.4177 0.388456 28.2354C0.437264 28.053 0.521312 27.8821 0.635801 27.7324C0.75029 27.5827 0.892978 27.4572 1.05572 27.3629C1.21846 27.2687 1.39806 27.2076 1.58428 27.1832C1.77049 27.1587 1.95967 27.1714 2.14101 27.2205L7.42441 28.6436L17.1478 23L7.42727 17.3564L2.13815 18.7795C1.7743 18.8707 1.38939 18.8145 1.06638 18.6229C0.743368 18.4314 0.508132 18.1199 0.411373 17.7556C0.314614 17.3913 0.364082 17.0033 0.549113 16.6753C0.734145 16.3474 1.03992 16.1056 1.40054 16.0022L3.92502 15.3209L0.722957 13.4636C0.559072 13.3699 0.415237 13.2446 0.299732 13.0947C0.184227 12.9449 0.099333 12.7736 0.0499388 12.5906C0.000544524 12.4077 -0.012375 12.2167 0.0119244 12.0287C0.0362237 11.8407 0.0972621 11.6594 0.191525 11.4952C0.285787 11.331 0.411413 11.1872 0.561168 11.0721C0.710924 10.9569 0.881851 10.8727 1.06411 10.8242C1.24637 10.7758 1.43636 10.7641 1.62314 10.7897C1.80993 10.8154 1.98981 10.878 2.15245 10.9739L5.35451 12.8311L4.67693 10.2925C4.62491 10.109 4.60973 9.91694 4.63229 9.7275C4.65484 9.53805 4.71468 9.35502 4.8083 9.18906C4.90193 9.02311 5.02747 8.87756 5.1776 8.7609C5.32774 8.64424 5.49947 8.5588 5.68278 8.50957C5.86609 8.46033 6.05732 8.44829 6.2453 8.47414C6.43329 8.49999 6.61428 8.56321 6.77772 8.66012C6.94116 8.75703 7.08378 8.8857 7.19726 9.03861C7.31074 9.19152 7.39282 9.36561 7.4387 9.55075L8.8539 14.8666L18.5773 20.5102V9.22013L14.7091 5.33025C14.5762 5.19679 14.4707 5.0383 14.3987 4.86385C14.3267 4.6894 14.2896 4.5024 14.2895 4.31352C14.2893 4.12464 14.3262 3.93758 14.3979 3.76303C14.4697 3.58847 14.5749 3.42984 14.7077 3.29619C14.8404 3.16253 14.998 3.05648 15.1715 2.98407C15.3449 2.91167 15.5309 2.87433 15.7187 2.8742C15.9066 2.87407 16.0926 2.91114 16.2662 2.9833C16.4397 3.05545 16.5975 3.16129 16.7304 3.29475L18.5773 5.15487V1.4375C18.5773 1.05625 18.7279 0.690618 18.996 0.421034C19.2641 0.15145 19.6277 0 20.0068 0C20.3859 0 20.7495 0.15145 21.0176 0.421034C21.2857 0.690618 21.4363 1.05625 21.4363 1.4375V5.15487L23.286 3.29475C23.5545 3.02521 23.9184 2.87393 24.2977 2.8742C24.677 2.87447 25.0407 3.02626 25.3088 3.29619C25.5768 3.56611 25.7272 3.93206 25.727 4.31352C25.7267 4.69498 25.5758 5.06071 25.3073 5.33025L21.4363 9.22013V20.5102L31.1568 14.8666L32.5749 9.54788C32.6734 9.17959 32.9135 8.86576 33.2421 8.67544C33.5708 8.48511 33.9612 8.43388 34.3274 8.533C34.6936 8.63212 35.0057 8.87349 35.195 9.204C35.3843 9.53451 35.4352 9.92709 35.3366 10.2954L34.6619 12.8311L37.864 10.9739C38.1921 10.7863 38.5808 10.7368 38.945 10.8362C39.3093 10.9357 39.6197 11.176 39.8085 11.5048C39.9972 11.8335 40.049 12.224 39.9525 12.5909C39.856 12.9579 39.6191 13.2716 39.2935 13.4636L36.0914 15.3209L38.6159 16.0022C38.9821 16.1014 39.2942 16.3427 39.4835 16.6732C39.6727 17.0038 39.7237 17.3963 39.6251 17.7646C39.5265 18.1329 39.2865 18.4467 38.9578 18.6371C38.6292 18.8274 38.2388 18.8786 37.8726 18.7795L32.5892 17.3564L22.8658 23L32.5863 28.6436L37.8726 27.2205C38.2388 27.1218 38.629 27.1734 38.9574 27.364C39.2858 27.5545 39.5255 27.8685 39.6237 28.2368C39.7219 28.6051 39.6706 28.9975 39.481 29.3278C39.2915 29.658 38.9793 29.899 38.613 29.9978L36.0885 30.6791L39.2906 32.5364C39.6163 32.7284 39.8532 33.0421 39.9497 33.4091C40.0461 33.776 39.9944 34.1665 39.8056 34.4952C39.6169 34.824 39.3065 35.0643 38.9422 35.1638C38.5779 35.2632 38.1893 35.2137 37.8611 35.0261L34.6591 33.1689L35.3338 35.7075C35.3858 35.891 35.401 36.0831 35.3784 36.2725C35.3559 36.4619 35.296 36.645 35.2024 36.8109C35.1088 36.9769 34.9832 37.1224 34.8331 37.2391C34.683 37.3558 34.5112 37.4412 34.3279 37.4904C34.1446 37.5397 33.9534 37.5517 33.7654 37.5259C33.5774 37.5 33.3964 37.4368 33.233 37.3399C33.0695 37.243 32.9269 37.1143 32.8134 36.9614C32.7 36.8085 32.6179 36.6344 32.572 36.4493L31.1568 31.1334L21.4363 25.4898V36.7799L25.3045 40.6697C25.5729 40.9393 25.7238 41.305 25.7241 41.6865C25.7244 42.0679 25.5739 42.4339 25.3059 42.7038C25.0379 42.9737 24.6742 43.1255 24.2948 43.1258C23.9155 43.1261 23.5516 42.9748 23.2832 42.7053L21.4334 40.8451V44.5625C21.4334 44.9437 21.2828 45.3094 21.0147 45.579C20.7466 45.8486 20.3859 46 20.0068 46Z" fill="#17E1BC"/>
</svg>
