<svg width="20" height="20" viewBox="0 0 20 20" fill="none" xmlns="http://www.w3.org/2000/svg">
<path d="M10.0001 17C10.245 17 10.4815 17.09 10.6645 17.2527C10.8475 17.4155 10.9645 17.6397 10.9931 17.883L11.0001 18V19C10.9998 19.2549 10.9022 19.5 10.7273 19.6854C10.5523 19.8707 10.3132 19.9822 10.0587 19.9972C9.80428 20.0121 9.55373 19.9293 9.35828 19.7657C9.16283 19.6021 9.03722 19.3701 9.00711 19.117L9.00011 19V18C9.00011 17.7348 9.10547 17.4804 9.29301 17.2929C9.48054 17.1054 9.7349 17 10.0001 17ZM16.3131 14.91L16.4071 14.993L17.1071 15.693C17.2865 15.873 17.3906 16.1144 17.3983 16.3684C17.4061 16.6223 17.3169 16.8697 17.1489 17.0603C16.9808 17.2508 16.7466 17.3703 16.4936 17.3944C16.2407 17.4185 15.9881 17.3454 15.7871 17.19L15.6931 17.107L14.9931 16.407C14.8205 16.2347 14.7169 16.0054 14.7016 15.762C14.6863 15.5187 14.7604 15.2781 14.9101 15.0856C15.0597 14.8931 15.2745 14.7619 15.5141 14.7166C15.7537 14.6714 16.0016 14.7153 16.2111 14.84L16.3131 14.91ZM5.00711 14.993C5.17929 15.1652 5.28272 15.3943 5.298 15.6373C5.31328 15.8803 5.23936 16.1206 5.09011 16.313L5.00711 16.407L4.30711 17.107C4.12716 17.2863 3.88568 17.3905 3.63173 17.3982C3.37778 17.406 3.1304 17.3168 2.93983 17.1488C2.74927 16.9807 2.62981 16.7464 2.60571 16.4935C2.58162 16.2406 2.6547 15.988 2.81011 15.787L2.89311 15.693L3.59311 14.993C3.78064 14.8055 4.03495 14.7002 4.30011 14.7002C4.56528 14.7002 4.81959 14.8055 5.00711 14.993ZM2.00011 9C2.25499 9.00028 2.50015 9.09788 2.68548 9.27285C2.87082 9.44782 2.98235 9.68695 2.99728 9.94139C3.01222 10.1958 2.92944 10.4464 2.76585 10.6418C2.60226 10.8373 2.37021 10.9629 2.11711 10.993L2.00011 11H1.00011C0.745233 10.9997 0.500081 10.9021 0.314745 10.7272C0.129408 10.5522 0.0178779 10.313 0.00294074 10.0586C-0.0119964 9.80416 0.0707874 9.55362 0.234378 9.35817C0.397968 9.16271 0.630017 9.0371 0.883113 9.007L1.00011 9H2.00011ZM19.0001 9C19.255 9.00028 19.5001 9.09788 19.6855 9.27285C19.8708 9.44782 19.9823 9.68695 19.9973 9.94139C20.0122 10.1958 19.9294 10.4464 19.7658 10.6418C19.6023 10.8373 19.3702 10.9629 19.1171 10.993L19.0001 11H18.0001C17.7452 10.9997 17.5001 10.9021 17.3147 10.7272C17.1294 10.5522 17.0179 10.313 17.0029 10.0586C16.988 9.80416 17.0708 9.55362 17.2344 9.35817C17.398 9.16271 17.63 9.0371 17.8831 9.007L18.0001 9H19.0001ZM4.21311 2.81L4.30711 2.893L5.00711 3.593C5.18646 3.77296 5.29059 4.01443 5.29834 4.26838C5.3061 4.52233 5.2169 4.76971 5.04886 4.96028C4.88083 5.15084 4.64656 5.27031 4.39364 5.2944C4.14072 5.31849 3.8881 5.24541 3.68711 5.09L3.59311 5.007L2.89311 4.307C2.7212 4.13468 2.61804 3.90557 2.60298 3.66263C2.58791 3.41969 2.66197 3.17959 2.81128 2.98735C2.96058 2.79511 3.17487 2.66393 3.41398 2.61839C3.65309 2.57285 3.9006 2.61609 4.11011 2.74L4.21311 2.81ZM17.1071 2.893C17.2793 3.06519 17.3827 3.29429 17.398 3.53732C17.4133 3.78034 17.3394 4.0206 17.1901 4.213L17.1071 4.307L16.4071 5.007C16.2272 5.18635 15.9857 5.29047 15.7317 5.29823C15.4778 5.30598 15.2304 5.21678 15.0398 5.04875C14.8493 4.88072 14.7298 4.64645 14.7057 4.39353C14.6816 4.1406 14.7547 3.88799 14.9101 3.687L14.9931 3.593L15.6931 2.893C15.8806 2.70553 16.1349 2.60021 16.4001 2.60021C16.6653 2.60021 16.9196 2.70553 17.1071 2.893ZM10.0001 0C10.245 3.23106e-05 10.4815 0.0899562 10.6645 0.252715C10.8475 0.415475 10.9645 0.639749 10.9931 0.883L11.0001 1V2C10.9998 2.25488 10.9022 2.50003 10.7273 2.68537C10.5523 2.8707 10.3132 2.98223 10.0587 2.99717C9.80428 3.01211 9.55373 2.92933 9.35828 2.76574C9.16283 2.60214 9.03722 2.3701 9.00711 2.117L9.00011 2V1C9.00011 0.734784 9.10547 0.48043 9.29301 0.292893C9.48054 0.105357 9.7349 0 10.0001 0ZM10.0001 5C10.9798 4.99994 11.9379 5.28769 12.7554 5.8275C13.573 6.36731 14.2139 7.1354 14.5987 8.03636C14.9834 8.93733 15.095 9.93147 14.9196 10.8953C14.7442 11.8592 14.2895 12.7502 13.6119 13.4579C12.9344 14.1655 12.064 14.6585 11.1086 14.8756C10.1533 15.0928 9.15528 15.0245 8.23845 14.6793C7.32161 14.334 6.5264 13.7271 5.95157 12.9338C5.37674 12.1405 5.04763 11.1958 5.00511 10.217L5.00011 10L5.00511 9.783C5.06103 8.49575 5.61172 7.27978 6.54234 6.38866C7.47295 5.49754 8.71165 5.00007 10.0001 5Z" fill="#340043"/>
</svg>
