<svg width="40" height="40" viewBox="0 0 40 40" fill="none" xmlns="http://www.w3.org/2000/svg">
<path d="M20 34.0019C20.4899 34.0019 20.9628 34.1818 21.3289 34.5073C21.695 34.8329 21.9289 35.2815 21.9862 35.768L22.0002 36.002V38.0021C21.9997 38.5119 21.8044 39.0022 21.4545 39.3729C21.1045 39.7436 20.6262 39.9667 20.1172 39.9966C19.6083 40.0264 19.1071 39.8609 18.7162 39.5337C18.3252 39.2065 18.074 38.7423 18.0138 38.2361L17.9998 38.0021V36.002C17.9998 35.4715 18.2105 34.9628 18.5856 34.5877C18.9607 34.2126 19.4695 34.0019 20 34.0019ZM32.6274 29.8217L32.8154 29.9877L34.2156 31.3877C34.5743 31.7477 34.7826 32.2307 34.7981 32.7386C34.8136 33.2465 34.6352 33.7413 34.2991 34.1224C33.963 34.5036 33.4944 34.7425 32.9885 34.7907C32.4826 34.8389 31.9773 34.6927 31.5753 34.3819L31.3873 34.2159L29.9871 32.8158C29.6419 32.4713 29.4346 32.0125 29.404 31.5258C29.3734 31.039 29.5217 30.5579 29.821 30.1728C30.1203 29.7878 30.55 29.5253 31.0292 29.4349C31.5085 29.3444 32.0043 29.4322 32.4234 29.6816L32.6274 29.8217ZM10.0129 29.9877C10.3573 30.3321 10.5642 30.7903 10.5947 31.2764C10.6253 31.7625 10.4774 32.243 10.1789 32.6278L10.0129 32.8158L8.61274 34.2159C8.25278 34.5746 7.76978 34.7829 7.26182 34.7984C6.75387 34.8139 6.25905 34.6355 5.87788 34.2994C5.49671 33.9633 5.25776 33.4948 5.20956 32.9889C5.16137 32.483 5.30755 31.9778 5.61841 31.5758L5.78443 31.3877L7.18458 29.9877C7.55968 29.6127 8.06835 29.4021 8.59874 29.4021C9.12913 29.4021 9.6378 29.6127 10.0129 29.9877ZM3.99823 18.001C4.50804 18.0016 4.9984 18.1968 5.36912 18.5467C5.73983 18.8967 5.96291 19.375 5.99279 19.8839C6.02267 20.3928 5.85708 20.8939 5.52987 21.2848C5.20265 21.6758 4.7385 21.927 4.23225 21.9872L3.99823 22.0012H1.99801C1.48819 22.0007 0.99783 21.8055 0.627117 21.4555C0.256404 21.1055 0.033318 20.6272 0.00344045 20.1183C-0.0264371 19.6094 0.139149 19.1083 0.466366 18.7174C0.793583 18.3264 1.25773 18.0752 1.76398 18.015L1.99801 18.001H3.99823ZM38.002 18.001C38.5118 18.0016 39.0022 18.1968 39.3729 18.5467C39.7436 18.8967 39.9667 19.375 39.9966 19.8839C40.0264 20.3928 39.8609 20.8939 39.5336 21.2848C39.2064 21.6758 38.7423 21.927 38.236 21.9872L38.002 22.0012H36.0018C35.492 22.0007 35.0016 21.8055 34.6309 21.4555C34.2602 21.1055 34.0371 20.6272 34.0072 20.1183C33.9773 19.6094 34.1429 19.1083 34.4701 18.7174C34.7974 18.3264 35.2615 18.0752 35.7677 18.015L36.0018 18.001H38.002ZM8.42472 5.62031L8.61274 5.78632L10.0129 7.1864C10.3716 7.54633 10.5799 8.02931 10.5954 8.53724C10.6109 9.04517 10.4325 9.53996 10.0964 9.92111C9.7603 10.3023 9.29171 10.5412 8.78581 10.5894C8.27991 10.6376 7.77463 10.4914 7.3726 10.1806L7.18458 10.0146L5.78443 8.61448C5.44057 8.26982 5.23423 7.81158 5.20409 7.32567C5.17396 6.83976 5.32209 6.35954 5.62073 5.97504C5.91937 5.59054 6.348 5.32815 6.82628 5.23707C7.30455 5.14599 7.79963 5.23248 8.2187 5.4803L8.42472 5.62031ZM34.2156 5.78632C34.56 6.13073 34.7669 6.58895 34.7974 7.07503C34.828 7.56111 34.6801 8.04164 34.3816 8.42647L34.2156 8.61448L32.8154 10.0146C32.4555 10.3733 31.9725 10.5815 31.4645 10.597C30.9566 10.6126 30.4617 10.4341 30.0806 10.0981C29.6994 9.76198 29.4604 9.29341 29.4122 8.78754C29.3641 8.28166 29.5102 7.77641 29.8211 7.37441L29.9871 7.1864L31.3873 5.78632C31.7624 5.41136 32.271 5.20072 32.8014 5.20072C33.3318 5.20072 33.8405 5.41136 34.2156 5.78632ZM20 0C20.4899 6.46247e-05 20.9628 0.179922 21.3289 0.505459C21.695 0.830995 21.9289 1.27957 21.9862 1.7661L22.0002 2.00011V4.00022C21.9997 4.51001 21.8044 5.00034 21.4545 5.37103C21.1045 5.74173 20.6262 5.9648 20.1172 5.99468C19.6083 6.02455 19.1071 5.85898 18.7162 5.53178C18.3252 5.20458 18.074 4.74045 18.0138 4.23423L17.9998 4.00022V2.00011C17.9998 1.46965 18.2105 0.960912 18.5856 0.585819C18.9607 0.210725 19.4695 0 20 0ZM20 10.0006C21.9596 10.0004 23.876 10.576 25.5113 11.6556C27.1465 12.7353 28.4286 14.2716 29.1981 16.0736C29.9677 17.8756 30.1909 19.864 29.84 21.7918C29.4892 23.7196 28.5796 25.5019 27.2245 26.9172C25.8693 28.3325 24.1281 29.3186 22.2173 29.7529C20.3065 30.1872 18.3102 30.0507 16.4763 29.3602C14.6424 28.6697 13.0518 27.4557 11.902 25.869C10.7522 24.2823 10.0939 22.3927 10.0089 20.4351L9.99889 20.0011L10.0089 19.5671C10.1207 16.9924 11.2222 14.5604 13.0837 12.778C14.9451 10.9957 17.4228 10.0007 20 10.0006Z" fill="#17E1BC"/>
</svg>
