<?xml version="1.0" encoding="utf-8"?>
<!-- Generator: Adobe Illustrator 27.5.0, SVG Export Plug-In . SVG Version: 6.00 Build 0)  -->
<svg version="1.1" id="Capa_2" xmlns="http://www.w3.org/2000/svg" xmlns:xlink="http://www.w3.org/1999/xlink" x="0px" y="0px"
	 viewBox="0 0 2122 2122" style="enable-background:new 0 0 2122 2122;" xml:space="preserve">
<path style="fill:#4562AB;" d="M1060.64,214.276c-467.423,0-846.389,378.917-846.389,846.389s378.966,846.389,846.389,846.389
	c467.473,0,846.439-378.917,846.439-846.389S1528.112,214.276,1060.64,214.276z M1060.64,1106.265c-25.144,0-45.6-20.405-45.6-45.6
	s20.455-45.6,45.6-45.6c25.194,0,45.65,20.405,45.65,45.6S1085.834,1106.265,1060.64,1106.265z"/>
<path style="fill:#9BBBE4;" d="M1060.64,742.465c-175.714,0-318.2,142.437-318.2,318.2c0,175.714,142.486,318.2,318.2,318.2
	c175.764,0,318.2-142.487,318.2-318.2C1378.84,884.901,1236.403,742.465,1060.64,742.465z M1060.64,1254.439
	c-107.015,0-193.774-86.759-193.774-193.774s86.759-193.774,193.774-193.774c107.065,0,193.824,86.759,193.824,193.774
	S1167.705,1254.439,1060.64,1254.439z"/>
<path style="fill:#FFFFFF;" d="M1190.771,704.022c-74.545-27.31-157.631-30.201-233.976-8.518
	c-73.525,20.882-140.043,64.432-188.687,123.376c-49.547,60.036-79.761,134.471-85.832,212.097
	c-6.166,78.827,12.676,158.828,53.747,226.421c39.508,65.021,98.63,117.672,167.977,149.037
	c72.535,32.807,154.616,41.93,232.641,26.15c75.241-15.218,145.044-53.966,198.112-109.385
	c53.447-55.816,89.278-127.732,100.958-204.172c2.953-19.325,4.449-38.819,4.494-58.368c-0.181-78.539-24.557-156.037-70.26-220.01
	C1325.46,778.384,1262.643,730.353,1190.771,704.022z M1430.226,1060.66c-0.176,76.362-23.803,151.274-67.949,213.639
	c-43.082,60.863-104.848,108.175-174.942,133.662c-72.784,26.465-153.381,29.394-227.888,8.233
	c-71.73-20.372-136.203-62.806-183.762-120.181c-48.243-58.199-77.763-131.159-83.498-206.535
	c-5.852-76.914,12.375-154.563,52.452-220.52c38.536-63.422,96.099-114.397,163.642-145.116
	c70.391-32.013,150.818-40.796,226.538-25.316c73.361,14.998,141.105,52.585,192.877,106.651
	c51.937,54.239,86.461,123.893,98.13,198.079C1428.813,1022.24,1430.182,1041.448,1430.226,1060.66z"/>
<path style="fill:#FFFFFF;" d="M1060.66,1661.496c-62.905-0.089-125.532-9.774-185.401-29.144
	c-57.71-18.672-112.423-46.265-161.909-81.324c-49.023-34.731-92.89-76.966-129.471-124.627
	c-36.811-47.962-66.453-101.513-87.292-158.275c-21.627-58.909-33.899-121.098-36.308-183.802
	c-0.303-7.885-0.444-15.773-0.454-23.664c-0.009-6.42-9.987-6.431-9.978,0c0.091,64.008,9.958,127.956,29.76,188.848
	c19.1,58.735,47.179,114.533,83.02,164.833c35.28,49.515,77.789,93.633,125.962,130.72c48.854,37.612,103.325,67.678,161.175,89.007
	c59.675,22.002,122.82,34.387,186.361,36.918c8.176,0.326,16.355,0.476,24.536,0.488
	C1067.081,1671.483,1067.091,1661.505,1060.66,1661.496z"/>
<path style="fill:#FFFFFF;" d="M1525.728,708.047c-35.281-49.515-77.79-93.633-125.963-130.72
	c-48.855-37.612-103.325-67.678-161.175-89.007c-59.675-22.002-122.82-34.387-186.362-36.918
	c-8.175-0.326-16.355-0.476-24.536-0.488c-6.421-0.009-6.43,9.969,0,9.978c62.906,0.089,125.532,9.774,185.401,29.145
	c57.71,18.672,112.423,46.264,161.909,81.324c49.022,34.731,92.89,76.965,129.47,124.626
	c36.812,47.962,66.453,101.513,87.293,158.276c21.627,58.908,33.9,121.098,36.308,183.801c0.302,7.885,0.443,15.774,0.454,23.664
	c0.01,6.42,9.987,6.432,9.978,0c-0.091-64.007-9.957-127.956-29.759-188.848C1589.647,814.145,1561.568,758.347,1525.728,708.047z"
	/>
<path style="fill:#FFFFFF;" d="M1778.333,827.628c-23.545-72.486-58.173-141.34-102.356-203.438
	c-43.828-61.599-96.743-116.429-156.698-162.469c-60.33-46.328-127.642-83.343-199.047-109.556
	c-73.691-27.053-151.62-42.248-230.047-45.295c-79.324-3.082-159.189,6.27-235.576,27.915
	c-73.511,20.83-143.821,53.006-207.658,94.984c-63.315,41.633-120.362,92.768-168.54,151.262
	c-48.145,58.455-87.36,123.917-116.112,193.977c-29.648,72.243-47.684,149.049-53.73,226.891
	c-6.172,79.461,0.219,159.952,19.013,237.412c18.071,74.479,47.72,146.165,87.44,211.706
	c39.285,64.823,88.392,123.729,145.101,174.021c56.683,50.268,120.857,92.041,189.909,123.233
	c70.649,31.913,145.948,52.693,222.942,61.675c79.369,9.259,160.221,5.836,238.538-10.022
	c75.392-15.266,148.372-42.315,215.581-79.723c66.276-36.888,126.969-83.894,179.33-138.768
	c52.214-54.721,96.242-117.289,129.929-185.013c34.439-69.241,58.142-143.734,69.837-220.183
	c5.852-38.25,8.778-76.882,8.832-115.575C1814.911,981.672,1802.742,902.779,1778.333,827.628z M1768.711,1291.039
	c-23.185,71.38-57.36,139.047-100.78,200.252c-43.255,60.973-95.86,115.48-155.249,160.888
	c-59.448,45.453-125.754,81.995-196.042,107.699c-72.925,26.668-149.917,41.734-227.505,44.633
	c-78.159,2.92-156.611-6.271-231.874-27.598c-72.737-20.611-142.112-52.443-205.275-93.977
	c-62.068-40.815-117.895-90.974-165.268-148.186c-47.957-57.918-87.187-123.288-115.553-192.937
	c-28.986-71.173-46.86-146.802-52.698-223.431c-5.988-78.61,0.269-158.103,18.975-234.705
	c17.912-73.351,47.061-143.764,86.194-208.336c38.7-63.859,87.009-121.735,142.807-171.349
	c55.734-49.556,118.926-90.627,186.811-121.504c70.06-31.866,145.3-52.68,221.774-61.371c78.158-8.882,157.74-5.606,234.829,10.105
	c74.559,15.196,146.625,41.904,213.061,78.997c64.967,36.272,124.335,82.253,175.768,136.016
	c51.724,54.066,95.198,115.862,128.606,182.815c33.985,68.109,57.236,141.455,68.959,216.657
	c5.927,38.017,8.735,76.484,8.789,114.953C1804.933,1138.822,1792.865,1216.677,1768.711,1291.039z"/>
</svg>
